<svg width="88" height="31" viewBox="0 0 88 31" fill="none" xmlns="http://www.w3.org/2000/svg">
  <title>gosha.net link button</title>
  <style>
    @media(prefers-color-scheme:dark){rect{fill:#000000;}}
  </style>
  <rect width="88" height="31" fill="#fff8e0" stroke="#444444" rx="0" ry="0"/>
  <g id="icons">
    <g id="pencil">
      <path id="Vector" d="M81.2729 21.1794C81.0364 20.4114 80.6494 18.9644 80.4229 18.4139C80.2399 17.9694 80.0689 17.5224 79.8584 17.3119C79.6484 17.1019 79.2909 17.1184 79.0754 17.3334C79.0754 17.3334 78.1729 17.9454 77.8494 18.3504C77.4444 18.6729 76.8314 19.5774 76.8314 19.5774C76.6159 19.7934 76.5994 20.1504 76.8094 20.3609C77.0199 20.5709 77.4664 20.7419 77.9114 20.9254C78.4619 21.1519 79.9089 21.5379 80.6769 21.7749C80.8084 21.8154 81.3129 21.3104 81.2729 21.1794Z" fill="#D99E82"/>
      <path id="Vector_2" d="M73.3854 10.8384C73.8059 11.2594 73.8059 11.9409 73.3854 12.3619L71.8619 13.8854C71.4414 14.3054 70.7589 14.3054 70.3389 13.8854L68.8154 12.3619C68.3949 11.9409 68.3949 11.2594 68.8154 10.8384L70.3384 9.31537C70.7589 8.89487 71.4409 8.89487 71.8619 9.31537L73.3854 10.8384Z" fill="#EA596E"/>
      <path id="Vector_3" d="M79.8584 17.3119L78.3344 18.8364L76.8129 20.3589L71.1004 14.6469L74.1469 11.6004L79.8584 17.3119Z" fill="#FFCC4D"/>
      <path id="Vector_4" d="M80.1234 21.6049C80.1234 21.6049 81.1139 22.1494 81.3814 21.8819C81.6489 21.6144 81.1019 20.6264 81.1019 20.6264C81.1019 20.6264 80.1639 20.6439 80.1234 21.6049Z" fill="#292F33"/>
      <path id="Vector_5" d="M69.1964 12.7429L72.2429 9.69588L74.1464 11.5999L71.1004 14.6469L69.1964 12.7429Z" fill="#CCD6DD"/>
      <path id="Vector_6" d="M69.5769 13.1234L72.6234 10.0769L73.0044 10.4579L69.9579 13.5039L69.5769 13.1234ZM70.3384 13.8859L73.3854 10.8389L73.7659 11.2199L70.7194 14.2664L70.3384 13.8859Z" fill="#99AAB5"/>
    </g>
    <path id="square" d="M41.365 20.61L30.4945 9.739C29.9705 9.215 29.542 9.3925 29.542 10.1335V20.215C29.542 20.956 30.148 21.5625 30.889 21.5625H40.9705C41.7115 21.5625 41.889 21.134 41.365 20.61ZM35.256 18.868H32.9095C32.539 18.868 32.236 18.565 32.236 18.1945V15.8475C32.236 15.477 32.4505 15.3885 32.7125 15.6505L35.4535 18.3915C35.715 18.6535 35.626 18.868 35.256 18.868Z" fill="#FFCC4D"/>
    <g id="pirate">
      <path id="Vector_7" d="M22.554 9.0395H8.6395C7.542 9.0395 6.652 9.93 6.652 11.0275V19.9725C6.652 21.07 7.542 21.9605 8.6395 21.9605H22.554C23.652 21.9605 24.542 21.07 24.542 19.9725V11.0275C24.542 9.93 23.652 9.0395 22.554 9.0395Z" fill="#31373D"/>
      <path id="Vector_8" d="M14.3545 13.5125C14.7662 13.5125 15.1 13.1787 15.1 12.767C15.1 12.3553 14.7662 12.0215 14.3545 12.0215C13.9428 12.0215 13.609 12.3553 13.609 12.767C13.609 13.1787 13.9428 13.5125 14.3545 13.5125Z" fill="#31373D"/>
      <path id="Vector_9" d="M16.839 13.5125C17.2507 13.5125 17.5845 13.1787 17.5845 12.767C17.5845 12.3553 17.2507 12.0215 16.839 12.0215C16.4273 12.0215 16.0935 12.3553 16.0935 12.767C16.0935 13.1787 16.4273 13.5125 16.839 13.5125Z" fill="#31373D"/>
      <path id="Vector_10" d="M15.597 14.506C15.8715 14.506 16.094 14.3947 16.094 14.2575C16.094 14.1203 15.8715 14.009 15.597 14.009C15.3225 14.009 15.1 14.1203 15.1 14.2575C15.1 14.3947 15.3225 14.506 15.597 14.506Z" fill="#292F33"/>
      <path id="Vector_11" d="M21.0735 18.9205C20.815 18.8265 20.5305 18.959 20.4365 19.2175L17.0495 17.9845L20.4365 16.7525C20.5305 17.0105 20.815 17.143 21.073 17.0495C21.3315 16.955 21.4645 16.671 21.3705 16.413C21.277 16.155 20.9915 16.022 20.7335 16.115C20.9915 16.0215 21.125 15.7365 21.031 15.4785C20.9365 15.22 20.652 15.0875 20.3945 15.1815C20.1365 15.275 20.003 15.5605 20.097 15.8185L15.597 17.4565L11.0965 15.8185C11.1905 15.56 11.058 15.275 10.7995 15.1815C10.541 15.087 10.2565 15.22 10.163 15.4785C10.069 15.7365 10.2015 16.022 10.46 16.115C10.2015 16.0215 9.917 16.1545 9.8235 16.413C9.7295 16.6715 9.862 16.9555 10.1205 17.0495C10.379 17.143 10.663 17.0105 10.757 16.7525L14.1445 17.9845L10.7575 19.217C10.6635 18.9585 10.3785 18.826 10.1205 18.92C9.8625 19.014 9.73 19.2985 9.8235 19.5565C9.9175 19.8145 10.2025 19.9475 10.4605 19.8535C10.202 19.948 10.0695 20.233 10.1635 20.491C10.2565 20.749 10.5425 20.8815 10.8 20.788C11.058 20.694 11.191 20.409 11.097 20.151L15.597 18.514L20.0965 20.1515C20.002 20.41 20.136 20.6945 20.394 20.7885C20.6515 20.882 20.937 20.7495 21.0305 20.4915C21.1245 20.2335 20.9915 19.948 20.733 19.854C20.9915 19.9485 21.2765 19.8155 21.3705 19.557C21.4645 19.299 21.331 19.014 21.0735 18.9205Z" fill="#E6E7E8"/>
      <path id="Vector_12" d="M15.597 10.0335C13.609 10.0335 12.615 11.643 12.615 13.0155C12.615 13.708 13.026 14.2075 13.609 14.533V15.5C13.609 15.775 13.8315 15.997 14.106 15.997C14.3805 15.997 14.603 15.775 14.603 15.5V14.8955C14.767 14.9315 14.9335 14.959 15.1 14.976V15.5C15.1 15.775 15.3225 15.997 15.597 15.997C15.871 15.997 16.094 15.775 16.094 15.5V14.976C16.2605 14.9585 16.4265 14.9315 16.5905 14.8955V15.5C16.5905 15.775 16.813 15.997 17.0875 15.997C17.3625 15.997 17.5845 15.775 17.5845 15.5V14.533C18.1675 14.208 18.5785 13.7085 18.5785 13.0155C18.5785 11.643 17.5845 10.0335 15.597 10.0335ZM14.3545 13.512C13.9425 13.512 13.609 13.512 13.609 12.767C13.609 12.355 13.9425 12.0215 14.3545 12.0215C15.1 12.0215 15.1 12.355 15.1 12.767C15.1 13.179 14.7665 13.512 14.3545 13.512ZM15.597 14.506C15.3225 14.506 15.1 14.395 15.1 14.2575C15.1 14.1205 15.3225 14.009 15.597 14.009C15.871 14.009 16.094 14.1205 16.094 14.2575C16.094 14.395 15.871 14.506 15.597 14.506ZM16.839 13.512C16.4275 13.512 16.094 13.179 16.094 12.767C16.094 12.355 16.094 12.0215 16.839 12.0215C17.2505 12.0215 17.5845 12.355 17.5845 12.767C17.5845 13.512 17.2505 13.512 16.839 13.512Z" fill="#E6E7E8"/>
    </g>
    <g id="camera">
      <path id="Vector_13" d="M48.823 9.581C48.823 9.581 48.823 9.1255 49.278 9.1255H52.01C52.01 9.1255 52.4655 9.1255 52.4655 9.581V10.4915H48.823V9.581Z" fill="#66757F"/>
      <path id="Vector_14" d="M47.0015 11.8575C47.0015 11.8575 47.0015 10.036 48.823 10.036H61.572C61.572 10.036 63.393 10.036 63.393 11.8575V20.053C63.393 20.053 63.393 21.8745 61.572 21.8745H48.823C48.823 21.8745 47.0015 21.8745 47.0015 20.053V11.8575Z" fill="#31373D"/>
      <path id="Vector_15" d="M56.5635 20.5085C59.0781 20.5085 61.1165 18.4701 61.1165 15.9555C61.1165 13.4409 59.0781 11.4025 56.5635 11.4025C54.0489 11.4025 52.0105 13.4409 52.0105 15.9555C52.0105 18.4701 54.0489 20.5085 56.5635 20.5085Z" fill="#CCD6DD"/>
      <path id="Vector_16" d="M56.5635 19.598C58.5752 19.598 60.206 17.9672 60.206 15.9555C60.206 13.9438 58.5752 12.313 56.5635 12.313C54.5518 12.313 52.921 13.9438 52.921 15.9555C52.921 17.9672 54.5518 19.598 56.5635 19.598Z" fill="#31373D"/>
      <path id="Vector_17" d="M56.5635 18.232C57.8208 18.232 58.84 17.2128 58.84 15.9555C58.84 14.6982 57.8208 13.679 56.5635 13.679C55.3062 13.679 54.287 14.6982 54.287 15.9555C54.287 17.2128 55.3062 18.232 56.5635 18.232Z" fill="#3B88C3"/>
      <path id="Vector_18" d="M61.7995 12.3125C62.1767 12.3125 62.4825 12.0067 62.4825 11.6295C62.4825 11.2523 62.1767 10.9465 61.7995 10.9465C61.4223 10.9465 61.1165 11.2523 61.1165 11.6295C61.1165 12.0067 61.4223 12.3125 61.7995 12.3125Z" fill="white"/>
      <path id="Vector_19" d="M52.4655 11.6295C52.4655 12.007 52.16 12.3125 51.7825 12.3125H49.506C49.1285 12.3125 48.823 12.007 48.823 11.6295C48.823 11.2525 49.1285 10.947 49.506 10.947H51.7825C52.16 10.947 52.4655 11.2525 52.4655 11.6295Z" fill="#F5F8FA"/>
    </g>
  </g>
</svg>
