<svg width="412" height="424" viewBox="0 0 412 424" fill="none" xmlns="http://www.w3.org/2000/svg">
<path d="M351.524 352.483L352.134 261.937L366.064 258.043L380.929 299.342L382.285 298.963L397.746 249.189L411.923 245.227L411.313 335.773L401.204 338.598L401.635 282.125L402.946 262.089L402.577 262.192L386.86 310.577L376.875 313.367L361.772 273.597L360.909 273.838L362.064 293.185L361.633 349.658L351.524 352.483Z" fill="white"/>
<path d="M263.183 377.173L263.793 286.627L275.525 282.949C306.595 273.335 314.393 277.934 314.822 298.016C315.112 311.89 310.533 319.283 298.954 323.981L299.037 324.755C306.69 324.079 309.484 327.418 312.22 337.684L318.534 361.703L307.07 364.907L301.836 339.523C299.902 330.228 296.235 328.994 284.893 332.164L274.045 335.196L273.785 374.21L263.183 377.173ZM274.159 324.665L291.753 319.614C300.929 316.784 304.354 311.441 304.478 299.046C304.571 288.919 302.63 287.202 293.039 288.554C286.087 289.832 283.04 290.817 274.952 293.742L274.159 324.665Z" fill="white"/>
<path d="M173.733 402.173L174.343 311.627L220.818 298.638L220.794 309.011L184.92 319.037L184.725 346.869L215.914 338.152L215.889 348.526L184.7 357.243L184.483 388.802L222.822 378.087L222.674 388.495L173.733 402.173Z" fill="white"/>
<path d="M98.8298 423.107L99.4496 343.058L76.7669 349.398L76.7571 338.901L132.848 323.224L132.857 333.721L110.051 340.095L109.431 420.144L98.8298 423.107Z" fill="white"/>
<path d="M351.808 220.827C326.66 227.856 318.904 219.125 319.084 181.728C319.358 146.565 325.718 135.085 349.017 128.573C367.262 123.474 374.306 127.752 375.565 144.146L365.551 145.882C364.44 137.155 360.862 135.763 351.369 138.416C334.85 143.032 329.98 152.235 329.724 181.28C329.558 210.167 333.554 215.429 349.456 210.985C355.867 209.193 359.906 207.001 364.675 203.143L365.402 177.688L348.76 182.339L348.874 171.808L375.378 164.4L375.618 208.059C366.291 215.583 360.438 218.415 351.808 220.827Z" fill="white"/>
<path d="M226.634 254.483L227.244 163.937L239.571 160.491L272.988 225.844L273.974 225.569L272.425 207.661L272.733 151.223L283.088 148.329L282.478 238.875L270.15 242.32L236.733 176.967L235.871 177.208L237.297 195.151L236.989 251.589L226.634 254.483Z" fill="white"/>
<path d="M163.416 273.48C140.487 279.889 133.155 270.774 133.364 234.432C133.534 198.899 139.915 187.015 161.734 180.917C184.541 174.543 191.907 183.781 191.678 220.527C191.336 255.443 185.113 267.416 163.416 273.48ZM143.97 233.86C143.725 261.041 147.326 267.743 161.133 263.885C176.049 259.716 180.925 249.581 181.072 221.098C181.213 193.548 177.701 186.688 164.018 190.512C148.978 194.716 144.136 204.973 143.97 233.86Z" fill="white"/>
<path d="M47.206 304.497L47.7273 214.109L58.329 211.146L57.7979 291.038L98.4789 279.668L98.4887 290.165L47.206 304.497Z" fill="white"/>
<path d="M289.643 103.967L290.253 13.4212L336.728 0.432068L336.703 10.8056L300.83 20.8317L300.634 48.6636L331.823 39.9467L331.798 50.3202L300.61 59.037L300.392 90.5963L338.731 79.8811L338.583 90.2891L289.643 103.967Z" fill="white"/>
<path d="M192.796 131.035L193.406 40.4886L204.008 37.5255L203.753 75.6076L237.284 66.2362L237.539 28.1541L248.141 25.191L247.531 115.737L236.929 118.7L237.294 76.7329L203.763 86.1044L203.398 128.072L192.796 131.035Z" fill="white"/>
<path d="M122.331 150.729L122.95 70.6796L100.268 77.0191L100.258 66.5223L156.348 50.8458L156.358 61.3425L133.552 67.7165L132.932 147.766L122.331 150.729Z" fill="white"/>
<path d="M8.34855 182.585L13.2616 156.891L0.194336 160.543L2.15158 150.426L15.2188 146.774L19.9289 122.731L6.86167 126.383L8.73009 116.425L21.7973 112.773L26.8336 87.0434L35.8328 84.5283L30.7965 110.258L48.1784 105.4L53.2146 79.6703L62.4603 77.0862L57.424 102.815L71.1077 98.9911L69.2392 108.95L55.5556 112.774L50.8455 136.817L64.5291 132.993L62.5719 143.109L48.8883 146.933L43.9753 172.628L34.7296 175.212L39.6426 149.517L22.2607 154.375L17.3477 180.07L8.34855 182.585ZM23.4928 144.993L41.8609 139.86L46.9118 114.658L28.5437 119.792L23.4928 144.993Z" fill="white"/>
</svg>
